HIERARCHY
ROOT Hips
{
  OFFSET 13.6774 106.653 -34.4427
  CHANNELS 6 Xposition Yposition Zposition Zrotation Xrotation Yrotation
  JOINT ToSpine
  {
    OFFSET -2.69724 7.43032 -0.144315
    CHANNELS 3 Zrotation Xrotation Yrotation
    JOINT Spine
    {
      OFFSET -0.0310711 10.7595 1.96963
      CHANNELS 3 Zrotation Xrotation Yrotation
      JOINT Spine1
      {
        OFFSET 19.9056 3.91189 0.764692
        CHANNELS 3 Zrotation Xrotation Yrotation
        JOINT Neck
        {
          OFFSET 25.9749 7.03908 -0.130764
          CHANNELS 3 Zrotation Xrotation Yrotation
          JOINT Head
          {
            OFFSET 9.52751 0.295786 -0.907742
            CHANNELS 3 Zrotation Xrotation Yrotation
            End Site
            {
              OFFSET 16.4037 0.713936 2.7358
            }
          }
        }
        JOINT LeftShoulder
        {
          OFFSET 17.7449 4.33886 11.7777
          CHANNELS 3 Zrotation Xrotation Yrotation
          JOINT LeftArm
          {
            OFFSET 0.911315 1.27913 9.80584
            CHANNELS 3 Zrotation Xrotation Yrotation
            JOINT LeftForeArm
            {
              OFFSET 28.6126 1.18197 -3.53199
              CHANNELS 3 Zrotation Xrotation Yrotation
              JOINT LeftHand
              {
                OFFSET 27.5088 0.0218783 0.327423
                CHANNELS 3 Zrotation Xrotation Yrotation
                End Site
                {
                  OFFSET 18.6038 -0.000155887 0.382096
                }
              }
            }
          }
        }
        JOINT RightShoulder
        {
          OFFSET 17.1009 2.89543 -12.2328
          CHANNELS 3 Zrotation Xrotation Yrotation
          JOINT RightArm
          {
            OFFSET 1.4228 0.178766 -10.211
            CHANNELS 3 Zrotation Xrotation Yrotation
            JOINT RightForeArm
            {
              OFFSET 28.733 1.87905 2.64907
              CHANNELS 3 Zrotation Xrotation Yrotation
              JOINT RightHand
              {
                OFFSET 27.4588 0.290562 -0.101845
                CHANNELS 3 Zrotation Xrotation Yrotation
                End Site
                {
                  OFFSET 17.8396 -0.255518 -0.000602873
                }
              }
            }
          }
        }
      }
    }
  }
  JOINT LeftUpLeg
  {
    OFFSET -5.61296 -2.22332 -10.2353
    CHANNELS 3 Zrotation Xrotation Yrotation
    JOINT LeftLeg
    {
      OFFSET 2.56703 -44.7417 -7.93097
      CHANNELS 3 Zrotation Xrotation Yrotation
      JOINT LeftFoot
      {
        OFFSET 3.16933 -46.5642 -3.96578
        CHANNELS 3 Zrotation Xrotation Yrotation
        JOINT LeftToeBase
        {
          OFFSET 0.346054 -6.02161 12.8035
          CHANNELS 3 Zrotation Xrotation Yrotation
          End Site
          {
            OFFSET 0.134235 -1.35082 5.13018
          }
        }
      }
    }
  }
  JOINT RightUpLeg
  {
    OFFSET -5.7928 -1.72406 10.6446
    CHANNELS 3 Zrotation Xrotation Yrotation
    JOINT RightLeg
    {
      OFFSET -2.57161 -44.7178 -7.85259
      CHANNELS 3 Zrotation Xrotation Yrotation
      JOINT RightFoot
      {
        OFFSET -3.10148 -46.5936 -4.03391
        CHANNELS 3 Zrotation Xrotation Yrotation
        JOINT RightToeBase
        {
          OFFSET -0.0828122 -6.13587 12.8035
          CHANNELS 3 Zrotation Xrotation Yrotation
          End Site
          {
            OFFSET -0.131328 -1.35082 5.13018
          }
        }
      }
    }
  }
}
MOTION
Frames: 6
Frame Time: 0.03333333333333333
0.0000 93.1000 0.0000 -66.8478 -15.4665 129.9787 -71.0994 -0.0133 87.7160 116.7546 61.0142 -36.7197 -10.1405 21.0574 -15.9312 -153.3595 -2.9191 -149.1863 -151.7697 33.0913 -172.0646 0.7784 -7.6549 -26.9162 -101.9162 20.0254 -72.3647 -2.7504 0.1807 -108.2822 -0.1057 0.2355 -0.0135 -2.4514 7.8157 39.6718 -66.9443 -32.9157 73.2305 11.4309 -5.7683 64.2838 -0.0579 0.2762 -0.1820 -23.3434 45.5633 70.7987 -22.4957 77.7282 -1.7788 -7.2886 -21.4757 -2.6081 10.1393 -21.1679 13.7798 -22.3218 -28.1655 121.8884 0.8120 38.7211 -3.9681 -6.0525 -14.1058 1.6318 3.3871 -5.5434 -24.5652 
0.0000 93.1000 0.0000 -68.7007 -20.3411 135.7946 -71.1741 0.0707 87.7248 122.3895 59.8554 -38.9399 -10.3606 21.9316 -15.7553 -152.4124 -0.7225 -148.1241 -154.6748 35.6789 -170.8869 0.2082 -9.0812 -29.1369 -101.2191 24.3084 -71.6435 -1.9139 -0.4575 -110.9748 0.3291 0.5838 -0.4112 -2.8566 8.9440 42.6183 -62.3876 -36.6858 90.6202 13.9023 -8.0951 60.5143 -0.3719 0.5181 -0.4104 -9.4747 42.3138 66.8685 -146.4091 78.1749 122.5297 -5.6303 -19.1323 -3.0690 16.1000 -28.8239 21.4526 -22.0755 -30.8734 107.3200 1.2701 38.8982 -0.2131 -7.5289 -14.3036 1.7499 2.8864 -8.2764 -29.4778 
0.0000 93.1000 0.0000 -70.8617 -26.7800 139.4311 -71.1520 0.0193 87.7216 126.7627 61.6121 -43.8834 -11.6924 24.0975 -14.7502 -151.1590 3.1107 -148.7881 -156.0825 39.5734 -169.7715 0.3842 -9.6627 -30.8223 -98.9242 29.0467 -74.5559 1.7162 -1.7881 -112.8003 0.2234 0.2448 -0.3203 -2.9731 8.8118 44.4907 -59.6309 -38.3114 106.6325 17.5593 -11.6408 57.8919 -0.4493 0.1384 -0.5505 -3.8411 39.6740 73.1890 -163.8933 64.2411 134.4778 -7.9258 -17.9961 -2.2009 15.9826 -28.9102 20.8003 -25.1784 -31.2532 101.0070 0.8096 39.0204 -5.1555 -9.4524 -15.5193 2.0067 2.4187 -6.6366 -27.0206 
0.0000 93.1000 0.0000 -73.1517 -35.9535 144.1482 -71.1349 -0.0225 87.7110 129.9983 63.1201 -46.9708 -11.8385 25.3396 -13.0835 -146.0532 6.8503 -153.9018 -155.9039 43.2511 -171.5889 0.4642 -9.9419 -30.6058 -94.2335 32.9595 -79.4104 6.3150 -3.0788 -113.5641 0.3687 -0.0176 -0.2813 -2.9582 8.7976 45.6294 -59.3666 -37.2014 116.5669 20.8423 -12.6858 59.6905 -0.4455 -0.1235 -0.3125 -0.9073 34.7963 82.8807 -168.0104 50.7878 133.5984 -9.1698 -17.1711 -1.6062 16.5980 -29.6135 20.4369 -31.2319 -31.1794 92.5354 -0.0404 38.3232 -7.8160 -9.0959 -18.3372 1.8881 4.3035 -1.9342 -31.0748 
0.0000 93.1000 0.0000 -77.2891 -47.9108 153.5080 -71.1443 -0.0354 87.7264 131.1490 64.0114 -43.5716 -10.3382 25.1979 -11.3229 -142.7599 12.2715 -158.4984 -159.2643 48.1436 -168.8499 0.2706 -11.1219 -30.4354 -89.0688 34.9626 -88.2133 10.5751 -4.8828 -111.6793 0.1669 -0.1510 -0.1693 -2.6546 8.5867 43.8730 -62.5732 -35.2659 121.9378 24.8110 -12.7979 62.1507 -0.2297 -0.2543 -0.3253 0.7913 27.6676 92.3019 -168.8824 43.8858 135.9619 -8.6272 -11.6924 -0.9646 15.5334 -28.2411 16.1251 -42.1245 -30.9073 75.6588 -0.5860 32.7275 -9.3882 -7.2017 -19.0495 1.2406 4.7824 1.9642 -28.5244 
0.0000 93.1000 0.0000 -79.4263 -58.9434 162.9222 -71.1182 -0.0034 87.7099 132.2165 65.6250 -42.4365 -11.1164 25.2250 -6.8116 -137.9272 17.3000 -162.5839 -162.7735 52.9354 -165.6109 -0.0907 -12.3995 -29.3478 -84.1789 35.2295 -99.2831 11.1284 -4.7250 -108.7175 -0.0408 0.0162 0.3211 -2.4007 8.5043 39.5718 -68.5499 -32.8443 122.7822 25.3505 -12.4057 64.6119 -0.2135 -0.0792 -0.4204 -7.1607 21.7540 101.0443 -168.0819 46.2952 138.8623 -11.6236 -2.8802 0.2751 13.4606 -26.5795 11.9084 -52.5619 -27.0670 63.5902 2.2805 28.1105 -12.4068 -5.5770 -17.0673 1.0235 2.6263 -0.2990 -20.8408 
